<svg xmlns="http://www.w3.org/2000/svg" width="472.96" height="506.39" viewBox="0 0 472.96 506.39">
  <defs>
    <style>
      .a {
        fill: #fdfffd;
      }
    </style>
  </defs>
  <g>
    <g>
      <path d="M430.46,96.89C444,89.34,457,82.15,473,88.08c-6.52,7.32-13,14.32-19.17,21.58-21,24.79-40,51-53.26,80.9-3.37,7.54-5.91,15.47-8.58,23.31-.73,2.12-1.35,3-3.86,3q-151.75-.14-303.53-.07c-1.5,0-3,.2-4.24.28-7.67-15.43-15-30.83-22.91-46-11.55-22.2-24-43.91-40-63.28C12.08,101.34,6,95.53,0,89.19c4.32-3.7,10-4.15,15.29-2.48C21.41,88.64,27.1,91.89,33,94.64A30.41,30.41,0,0,1,36.63,97C41.7,88,49,84.08,59,87a17,17,0,0,1,11.91,14.94c.56,10-4.45,16.08-13.91,19.18a16.11,16.11,0,0,0,1,2.53C63.6,132.77,70.14,141,79.9,146.06c12.14,6.27,23.88,2.6,33.88-5a6.93,6.93,0,0,0,1.64-2.1c4.94-8.9,6.25-18.71,7.31-27.36-5.15-3.11-10.16-5.08-13.76-8.52-8.19-7.81-7.92-21.15-.16-29.39a21.39,21.39,0,0,1,32.62,27.59c-2.42,3-1.86,4.86.24,7.45a35.6,35.6,0,0,0,27.9,13.78c7.46.16,15-.91,22.4-2,5.46-.79,9.78-4.14,13.58-8.08,5.77-6,9.37-13.13,12-21.68-10.81,3.8-20.43,3.07-29-3.85a26.29,26.29,0,0,1-10-20.26c-.51-12.72,8.71-28.92,30.94-28.34-.18-2.4-.32-4.77-.54-7.13-1.4-14.91,7.56-27.77,21.34-30.6A27.37,27.37,0,0,1,262,18.51c1.83,5.37,1.75,10.35-.42,19.56,10.82,1.25,20.25,4.9,25.14,15.69a27.85,27.85,0,0,1,1.25,20.86c-4.86,14.89-19.11,21.13-38.05,16.16,1.78,3.87,2.89,7.52,5,10.53,3.63,5.32,7.33,10.78,11.93,15.24,6.37,6.17,14.56,8.3,23.39,6.87,7.89-1.28,15.91-2.29,23.55-4.51s13.52-7.48,18.49-14.23c-.95-1.18-1.88-2.33-2.8-3.49a21.4,21.4,0,1,1,20.09,8c-1,.12-2.71,1.62-2.74,2.53-.32,9,1.31,17.49,6.37,25.13,3.23,4.89,8,7.47,13.19,10,8.72,4.21,16.08,1.51,23.22-3.35a89.26,89.26,0,0,0,10.55-8.21c3.62-3.38,6.79-7.25,10.44-11.22l-4.65-3.29c-7.22-5-10-13.26-7.18-21.15C401.43,92,408.79,87.74,417.5,88.2,423.59,88.53,428,90.91,430.46,96.89Z"/>
      <path d="M393.76,248.09a14.09,14.09,0,0,1-6.93,7.3H349.26c-9.9-.15-19.81-.07-29.72,0-8.13.05-16.28.11-24.41.05-3.26,0-6.51-.05-9.77-.05-24.68-.14-49.36,0-74,0H127.14c-6.5,0-13-.11-19.48,0h-26a15,15,0,0,1-6-5.59,15.56,15.56,0,0,1,1-17.91,16.14,16.14,0,0,1,4.79-4.06h17a21.3,21.3,0,0,0,3.55.32c88.14.06,285-.32,285-.32a15.28,15.28,0,0,1,4,3.17C395.54,236.08,396.38,241.9,393.76,248.09Z"/>
      <path d="M319.54,255.39c-8.13.05-16.28.11-24.41.05-3.26,0-6.51-.05-9.77-.05Z"/>
    </g>
    <g>
      <path class="a" d="M301.83,501.89c-2.89,0-5.89-.12-8.91-.34-29.55-2.19-49.67-16.82-59.85-43.49-10.16,26.65-30.29,41.3-59.86,43.49-3,.22-6,.34-8.91.34-28.52,0-50.7-11-65.94-32.71C85.22,450.44,81,429.11,78.61,410.72l-.17-1.3a77,77,0,0,1-.86-10.1c0-.15,0-.29,0-.4a9.44,9.44,0,0,0-1.09-.05H76.3l-4.41,0c-8.55,0-18.73-.18-27.72-.35-7.61-.13-14.81-.26-19.89-.26h-4.5V360.19h4.5c7.62,0,15.62-.15,23.35-.31,7.56-.15,15.37-.3,22.65-.3,1.93,0,3.83,0,5.69,0h.25c.36,0,.64,0,.85,0a32.47,32.47,0,0,0,.18-3.36c.08-4.54.09-8.73.1-13.17v-1.6a14.13,14.13,0,0,0-.15-2.59,10.13,10.13,0,0,0-1.37-.07h-.27c-1.87,0-3.86,0-5.93,0-8.26,0-17.91-.2-26.43-.37-7.21-.15-14-.29-18.92-.29h-4.5v-38h4.5c3.71,0,9.73-.12,16.7-.26,9.5-.19,20.27-.4,29.34-.4,1.88,0,3.67,0,5.35,0h.23a10.18,10.18,0,0,0,1.47-.09,8.43,8.43,0,0,0,.12-1.41c.07-3.21,0-6.46,0-9.91s-.08-7.24,0-10.94l.11-4.45,47.68.65.17,0c1,.09,2.55.09,4.49.09H336.17c1.94,0,3.48,0,4.49-.09l.2,0h47l.17,4.33c.26,7,.46,13.86.61,20.33a9.53,9.53,0,0,0,.12,1.4,10.18,10.18,0,0,0,1.47.09h.23c5.27-.07,9.72-.1,14.87-.1l11.08,0c6,0,13.24.05,23.45.05h4.5v39.29l-4.53,0c-6.17-.05-11.23-.06-15.51-.06-6.35,0-11,0-15.06.06-3.16,0-6,0-8.94,0-3.21,0-6.31,0-9.75-.07h-.27a11.69,11.69,0,0,0-1.52.08,12.32,12.32,0,0,0,0,2.3,141.13,141.13,0,0,1,.11,15.32,21.12,21.12,0,0,0,0,3.07,8.38,8.38,0,0,0,1,.05h.24c5.9-.07,12.47-.11,20.7-.11,5,0,10,0,14.9,0l14.11,0h4.5v39.34h-4.5l-15.51,0c-5.47,0-11,0-16.5,0-7.07,0-12.79,0-18-.07h-.19a9.44,9.44,0,0,0-1.09.05c0,.11,0,.25,0,.4a75.29,75.29,0,0,1-.86,10.1l-.17,1.3c-2.39,18.39-6.61,39.72-19.75,58.46C352.54,490.89,330.35,501.89,301.83,501.89ZM264.65,339.58c-.23,8.86-.63,28.95.11,39v7.12c0,1.58,1.39,41.21,37,41.89h.87c35.65-.68,37-40.31,37-42V373.07c.19-8.36.1-25.38,0-33.48l-11.88,0H293.72q-13.12,0-26.25,0Zm-138.09,0c-.14,9-.38,29.57.07,39.69v6.46c0,1.58,1.39,41.21,37,41.89h.87c35.65-.68,37-40.31,37-42V375.36c.32-6.74.16-13.72,0-20.46V339.59H147.85Z"/>
      <path d="M82,277.35l43.06.59c1.21.11,2.8.11,4.89.11H336.17c2.09,0,3.68,0,4.89-.11h42.47c.25,6.75.46,13.52.61,20.26.11,4.59,1.61,5.89,6.09,5.89h.29c5.68-.07,10.16-.1,14.83-.1,8.33,0,17.23.07,34.51.07v30.27c-6.17-.05-11.22-.06-15.51-.06-11.32,0-17.26.1-24,.1-2.91,0-6,0-9.68-.07h-.33c-4.86,0-6.38,1.44-6,7.17a136.05,136.05,0,0,1,.1,14.84c-.25,5.92.48,7.81,5.53,7.81h.31c6.65-.08,13.6-.11,20.59-.11,9.82,0,19.74.05,29.05.05v30.34c-10.19,0-21.23.05-32.05.05-6.11,0-12.15,0-17.93-.07h-.23c-3.77,0-5.61,1.05-5.6,5a83.69,83.69,0,0,1-1,10.8c-2.59,19.93-7,39.37-19,56.46-15.13,21.55-36.57,30.79-62.26,30.79-2.8,0-5.67-.11-8.58-.33-29.12-2.16-47.76-17-56.82-42.9a6.14,6.14,0,0,0-1.52-2.05,2.07,2.07,0,0,0-1.11-.54v.25a1.21,1.21,0,0,0-1.47,0v-.25a2.07,2.07,0,0,0-1.11.54,6.43,6.43,0,0,0-1.52,2.05c-9.06,25.87-27.7,40.74-56.82,42.9q-4.37.33-8.58.33c-25.68,0-47.13-9.24-62.25-30.79-12-17.09-16.39-36.53-19-56.46a83.69,83.69,0,0,1-1-10.8c0-3.92-1.83-5-5.6-5h-.23l-4.35,0c-15.69,0-36.43-.61-47.62-.61V364.69c15.18,0,31.39-.61,46-.61,1.91,0,3.79,0,5.63,0h.31c5,0,5.42-1.89,5.53-7.81.09-5.12.09-9.72.1-14.84,0-5.74-1.17-7.17-6-7.17H75.5c-1.85,0-3.81,0-5.85,0-15.16,0-34.56-.66-45.37-.66v-29c8.78,0,30.28-.66,46-.66,1.86,0,3.63,0,5.29,0h.29c4.48,0,6-1.3,6.09-5.89.15-6.74-.15-13.78,0-20.85m81.57,154.79h1v0c40.51-.78,41.44-46.39,41.44-46.39V375.58c.34-7,.17-14.06,0-21.11v-19.4s-29.64,0-42.1,0h0l-16.12,0-25.45-.07h-.26s-.59,31,0,44.4v6.26s.93,45.61,41.45,46.39v0m138.14,0h1v0c40.52-.78,41.44-46.39,41.44-46.39V373.17c.26-11.34,0-38.1,0-38.1s-29.56.05-42,.05h-9.56q-12.57,0-25.14,0l-7,0h-.24s-1,30.38,0,43.87v6.79s.93,45.61,41.45,46.39v0M73.22,268.23,73,277.14c-.09,3.76-.05,7.49,0,11.09,0,2.35,0,4.62,0,6.83H70.32c-9.11,0-19.91.21-29.43.4-7,.14-12.95.26-16.61.26h-9v47h9c4.86,0,11.65.14,18.84.29,8.54.17,18.22.37,26.53.37h3.2c0,4,0,7.74-.08,11.76H70.28c-7.32,0-15.16.16-22.74.3s-15.68.31-23.26.31h-9v47.09h9c5,0,12.22.13,19.81.26,9,.17,19.22.35,27.81.35h1.34c.17,2.27.46,4.47.74,6.63l.17,1.27c2.46,18.95,6.82,40.94,20.53,60.48,16.12,23,39.55,34.62,69.62,34.62,3,0,6.11-.12,9.25-.35,16.12-1.2,29.82-6,40.73-14.39A68.05,68.05,0,0,0,233.07,469a67.91,67.91,0,0,0,18.78,22.66c10.91,8.35,24.61,13.19,40.74,14.39,3.13.23,6.24.35,9.24.35,30.07,0,53.5-11.65,69.62-34.62,13.71-19.54,18.07-41.53,20.53-60.47l.17-1.28c.28-2.15.57-4.35.74-6.62,4.4,0,9.22,0,14.92,0,5.5,0,11.06,0,16.53,0l15.52,0h9V355.05h-9l-14.11,0c-4.95,0-9.95,0-14.94,0-6.71,0-12.33,0-17.37.08.14-4.19.13-7.94-.05-11.74,2.36,0,4.61,0,6.92,0,3,0,5.8,0,9,0,4.08,0,8.71-.06,15.06-.06,4.76,0,9.81,0,15.45.06l9.06.05V295.06h-9c-10.19,0-17.52,0-23.42,0l-11.09,0c-4.29,0-8.09,0-12.28.07-.14-5.64-.32-11.5-.55-17.46l-.32-8.66H340.66l-.4,0c-.81.07-2.33.07-4.09.07H242.8v0l-9,0h-1.41l-9,0v0H130c-1.76,0-3.28,0-4.09-.07l-.34,0h-.34l-43.06-.59-8.91-.12Zm196,117.35v-7l0-.33c-.63-8.48-.42-24.31-.21-34.19q11.79,0,23.58,0h42.65c.05,8.8.09,21.89-.07,28.87v12.62a55.93,55.93,0,0,1-4.9,19.71c-5.57,11.74-14.63,17.57-27.71,17.82h-.7c-13.08-.25-22.15-6.08-27.71-17.82a56,56,0,0,1-4.91-19.72Zm-138.14,0v-6.51c-.37-8.59-.25-24.86-.12-35h.62l16.2,0h49.24V355c.16,7,.32,13.57,0,20.17v10.44a55.81,55.81,0,0,1-4.91,19.71c-5.56,11.74-14.62,17.57-27.7,17.82h-.7C150.67,422.87,141.6,417,136,405.3a56,56,0,0,1-4.91-19.72Zm258.2-30.49Z"/>
    </g>
    <g>
      <rect x="34.09" y="312.07" width="40.22" height="13.48"/>
      <rect x="34.09" y="372.13" width="40.22" height="13.48"/>
      <rect x="390.82" y="312.07" width="40.22" height="13.48"/>
      <rect x="390.82" y="372.13" width="40.22" height="13.48"/>
    </g>
  </g>
</svg>
